<?xml version="1.0" encoding="UTF-8"?><svg id="a" xmlns="http://www.w3.org/2000/svg" viewBox="0 0 460 104"><defs><style>.b{fill:#7d898f;}.c{fill:#0db9d7;}</style></defs><path class="b" d="M154.78,94.13c-.74-1.92-.8-5.41-.8-10.43V.58l-14.5,2.24v29.93c-3.33-1.84-7.31-3.16-11.92-3.6-11.9-1.16-22.91,4.4-29.04,11.32s-12.52,21.44-7.75,38.63c3.79,13.67,13.79,21.57,25.7,23.28,6.59,.94,16.6,.26,24.58-5.55,1.05,3.62,3.59,5.87,5.52,6.4l12.46-4.39c-2.19-1.51-3.56-2.91-4.25-4.69Zm-39.6-6.27c-10.4-5.9-12.23-18.61-10.27-28.9,1.93-10.13,10-16.71,18.84-17.5,6.76-.61,11.87,1.09,15.72,3.75v39.4c-8.45,7.19-19.52,5.96-24.29,3.26Z"/><path class="b" d="M36.73,6.04L0,101.3H15.66l8.82-24.66H61.66l9.06,24.66h16.88L50.9,6.04h-14.16Zm-8.17,58.06l14.75-41.19,14.65,41.19H28.57Z"/><polygon class="b" points="411.24 94.48 388.05 31.59 383.21 31.59 360.38 94.48 338.8 30.71 333.09 30.71 357.52 101.31 362.5 101.31 385.69 38.29 408.76 101.31 413.72 101.31 438.04 30.71 432.45 30.71 411.24 94.48"/><polygon class="b" points="175.11 101.63 180.44 101.63 180.44 57.16 224.79 57.16 224.79 52.33 180.44 52.33 180.44 9.12 229.39 9.12 229.39 4.28 175.11 4.28 175.11 101.63"/><path class="b" d="M295.68,28.62c-23.71,0-31.77,17.73-31.77,37.21s8.06,37.59,31.77,37.59,31.75-17.86,31.75-37.47-7.94-37.33-31.75-37.33Zm0,70.21c-18.12,0-26.31-12.78-26.31-33.12s8.19-32.62,26.31-32.62,26.42,12.53,26.42,32.62-8.19,33.12-26.42,33.12Z"/><path class="b" d="M249.11,88.03V.61l-5.22,.8V91.24c0,5.9,1.92,8.97,5.26,11.38l5-2.37c-3.96-2.43-5.04-5.88-5.04-12.21Z"/><path class="c" d="M442.14,6.04c-.85,0-1.53,.32-1.75,.98l-4.54,13.49h15.95c.85,0,1.53-.32,1.75-.98l4.54-13.5h-15.95Z"/></svg>